<?xml version="1.0" encoding="UTF-8"?>
<!-- Created with Inkscape (http://www.inkscape.org/) -->
<svg width="44.638mm" height="13.77mm" version="1.1" viewBox="0 0 44.638 13.77" xmlns="http://www.w3.org/2000/svg">
 <g transform="translate(-21.796 -19.115)" fill="#008080" stroke-width=".26458">
  <path d="m52.907 32.466q-0.17053 0.07441-0.31006 0.13953-0.13643 0.06511-0.35967 0.13642-0.18914 0.05891-0.41238 0.09922-0.22014 0.04341-0.48679 0.04341-0.5023 0-0.91467-0.13953-0.40928-0.14263-0.71314-0.44338-0.29766-0.29456-0.46509-0.74724-0.16743-0.45579-0.16743-1.0573 0-0.57051 0.16123-1.0201 0.16123-0.44958 0.46509-0.75964 0.29456-0.30076 0.71003-0.45889 0.41858-0.15813 0.92708-0.15813 0.37207 0 0.74104 0.08992 0.37207 0.08992 0.82476 0.31626v0.72864h-0.04651q-0.38137-0.31936-0.75654-0.46509-0.37517-0.14573-0.80305-0.14573-0.35037 0-0.63252 0.11472-0.27905 0.11162-0.49919 0.35037-0.21394 0.23254-0.33486 0.58911-0.11782 0.35347-0.11782 0.81855 0 0.48679 0.13022 0.83716 0.13332 0.35037 0.34106 0.57051 0.21704 0.22944 0.5054 0.34106 0.29146 0.10852 0.61392 0.10852 0.44338 0 0.83096-0.15193 0.38757-0.15193 0.72554-0.45579h0.04341zm1.4108 0.33486h-0.58291v-4.8245h0.58291zm1.7797-4.0432h-0.65732v-0.60462h0.65732zm-0.03721 4.0432h-0.58291v-3.4634h0.58291zm4.0494 0h-0.58291v-1.972q0-0.23874-0.02791-0.44648-0.02791-0.21084-0.10232-0.32866-0.07751-0.13022-0.22324-0.19224-0.14573-0.06511-0.37827-0.06511-0.23874 0-0.49919 0.11782t-0.49919 0.30076v2.5859h-0.58291v-3.4634h0.58291v0.38447q0.27285-0.22634 0.56431-0.35347t0.59841-0.12712q0.56121 0 0.85576 0.33796 0.29456 0.33796 0.29456 0.97358zm1.7487-4.0432h-0.65732v-0.60462h0.65732zm-0.03721 4.0432h-0.58291v-3.4634h0.58291zm3.7145-0.21704q-0.29146 0.13953-0.555 0.21704-0.26045 0.07751-0.555 0.07751-0.37517 0-0.68833-0.10852-0.31316-0.11162-0.5364-0.33486-0.22634-0.22324-0.35037-0.56431-0.12402-0.34106-0.12402-0.79685 0-0.84956 0.46509-1.3333 0.46819-0.48369 1.234-0.48369 0.29766 0 0.58291 0.08372 0.28836 0.08372 0.5271 0.20464v0.64802h-0.03101q-0.26665-0.20774-0.5519-0.31936-0.28215-0.11162-0.5519-0.11162-0.49609 0-0.78445 0.33486-0.28525 0.33176-0.28525 0.97668 0 0.62632 0.27905 0.96428 0.28215 0.33486 0.79065 0.33486 0.17673 0 0.35967-0.04651 0.18294-0.04651 0.32866-0.12092 0.12712-0.06511 0.23874-0.13643 0.11162-0.07441 0.17673-0.12712h0.03101z" fill-opacity=".94118" aria-label="Clinic"/>
  <path d="m23.775 20.034 2.9507 4.4648v-4.5062q0-0.43925 0.18603-0.65629 0.1912-0.22221 0.5116-0.22221 0.33073 0 0.52193 0.22221 0.1912 0.21704 0.1912 0.65629v5.9583q0 0.99735-0.82682 0.99735-0.2067 0-0.37207-0.06201-0.16536-0.05684-0.31006-0.18603-0.14469-0.12919-0.26872-0.29972-0.12402-0.1757-0.24805-0.35657l-2.8784-4.4132v4.439q0 0.43408-0.20154 0.65629-0.20154 0.22221-0.51676 0.22221-0.32556 0-0.52193-0.22221-0.19637-0.22738-0.19637-0.65629v-5.8446q0-0.37207 0.08268-0.58394 0.09819-0.23254 0.32556-0.37724 0.22738-0.14986 0.49092-0.14986 0.2067 0 0.3514 0.06718 0.14986 0.06718 0.25838 0.18087 0.11369 0.11369 0.22738 0.29456 0.11886 0.18087 0.24288 0.37724zm11.224 4.0463q0 0.63045-0.19637 1.1627-0.19637 0.53227-0.56844 0.91467t-0.88883 0.58911q-0.51676 0.20154-1.1627 0.20154-0.64079 0-1.1524-0.2067t-0.88883-0.58911q-0.37207-0.38757-0.56844-0.9095-0.1912-0.5271-0.1912-1.1627 0-0.64079 0.19637-1.1731 0.19637-0.53227 0.56327-0.9095 0.3669-0.37724 0.88883-0.57877 0.52193-0.2067 1.1524-0.2067 0.64079 0 1.1627 0.2067t0.894 0.58911q0.37207 0.3824 0.56327 0.9095 0.19637 0.5271 0.19637 1.1627zm-1.4159 0q0-0.86299-0.3824-1.3436-0.37724-0.48059-1.018-0.48059-0.41341 0-0.72864 0.21704-0.31523 0.21187-0.48576 0.63045-0.17053 0.41858-0.17053 0.97668 0 0.55294 0.16536 0.96635 0.17053 0.41341 0.48059 0.63562 0.31523 0.21704 0.73897 0.21704 0.64079 0 1.018-0.48059 0.3824-0.48576 0.3824-1.3384zm3.3848-1.9895 1.142 3.2039 1.2299-3.3435q0.14469-0.40308 0.28422-0.56844 0.13953-0.17053 0.42374-0.17053 0.26872 0 0.45475 0.18087 0.1912 0.18087 0.1912 0.41858 0 0.09302-0.03617 0.21704-0.03101 0.12402-0.07751 0.23254-0.04134 0.10852-0.09819 0.24805l-1.3539 3.359q-0.05684 0.14469-0.14986 0.3669-0.08785 0.22221-0.20154 0.3824-0.10852 0.15503-0.27388 0.24288-0.1602 0.08785-0.39274 0.08785-0.29972 0-0.48059-0.13436-0.1757-0.13953-0.26355-0.29972-0.08268-0.16536-0.28422-0.64595l-1.3436-3.3228q-0.04651-0.12402-0.09819-0.24805-0.04651-0.12402-0.08268-0.25321-0.03101-0.12919-0.03101-0.22221 0-0.14469 0.08785-0.28422 0.08785-0.14469 0.24288-0.23254 0.15503-0.09302 0.3359-0.09302 0.3514 0 0.48059 0.20154 0.13436 0.20154 0.29456 0.67696zm9.8805 1.9895q0 0.63045-0.19637 1.1627-0.19637 0.53227-0.56844 0.91467t-0.88883 0.58911q-0.51676 0.20154-1.1627 0.20154-0.64079 0-1.1524-0.2067t-0.88883-0.58911q-0.37207-0.38757-0.56844-0.9095-0.1912-0.5271-0.1912-1.1627 0-0.64079 0.19637-1.1731 0.19637-0.53227 0.56327-0.9095 0.3669-0.37724 0.88883-0.57877 0.52193-0.2067 1.1524-0.2067 0.64079 0 1.1627 0.2067t0.894 0.58911q0.37207 0.3824 0.56327 0.9095 0.19637 0.5271 0.19637 1.1627zm-1.4159 0q0-0.86299-0.3824-1.3436-0.37724-0.48059-1.018-0.48059-0.41341 0-0.72864 0.21704-0.31523 0.21187-0.48576 0.63045-0.17053 0.41858-0.17053 0.97668 0 0.55294 0.16536 0.96635 0.17053 0.41341 0.48059 0.63562 0.31523 0.21704 0.73897 0.21704 0.64079 0 1.018-0.48059 0.3824-0.48576 0.3824-1.3384zm5.8601 2.7388h-2.3151q-0.50126 0-0.7183-0.22221-0.21187-0.22738-0.21187-0.7183v-5.6947q0-0.50126 0.21704-0.7183 0.22221-0.22221 0.71313-0.22221h2.4546q0.5426 0 0.94051 0.06718 0.39791 0.06718 0.71313 0.25838 0.26872 0.1602 0.47542 0.40824 0.2067 0.24288 0.31522 0.5426 0.10852 0.29456 0.10852 0.62528 0 1.1369-1.1369 1.664 1.4934 0.47542 1.4934 1.85 0 0.63562-0.32556 1.1472-0.32556 0.50643-0.8785 0.74931-0.34623 0.14469-0.79581 0.2067-0.44958 0.05684-1.049 0.05684zm-0.11369-3.3641h-1.5968v2.2117h1.6485q1.5555 0 1.5555-1.1214 0-0.57361-0.40307-0.83199-0.40308-0.25838-1.2041-0.25838zm-1.5968-3.0592v1.9585h1.4056q0.57361 0 0.88366-0.10852 0.31522-0.10852 0.48059-0.41341 0.12919-0.21704 0.12919-0.48576 0-0.57361-0.40824-0.75964-0.40824-0.1912-1.2454-0.1912zm9.5549 5.7567q-0.5116 0.39791-0.99218 0.59944-0.47542 0.19637-1.0697 0.19637-0.5426 0-0.95601-0.21187-0.40824-0.21704-0.63045-0.58394-0.22221-0.3669-0.22221-0.79581 0-0.57877 0.3669-0.98702 0.3669-0.40824 1.0077-0.54777 0.13436-0.03101 0.66662-0.13953 0.53227-0.10852 0.9095-0.19637 0.3824-0.09302 0.82682-0.22221-0.02584-0.5581-0.22738-0.81648-0.19637-0.26355-0.82165-0.26355-0.53743 0-0.81132 0.14986-0.26872 0.14986-0.46509 0.44958-0.1912 0.29972-0.27388 0.39791-0.07751 0.09302-0.34106 0.09302-0.23771 0-0.41341-0.14986-0.17053-0.15503-0.17053-0.39274 0-0.37207 0.26355-0.72347 0.26355-0.3514 0.82165-0.57877 0.5581-0.22738 1.3901-0.22738 0.93017 0 1.4624 0.22221 0.53227 0.21704 0.74931 0.69246 0.22221 0.47542 0.22221 1.2609 0 0.49609-0.0052 0.84232 0 0.34623-0.0052 0.76998 0 0.39791 0.12919 0.83199 0.13436 0.42891 0.13436 0.55294 0 0.21704-0.2067 0.39791-0.20154 0.1757-0.45992 0.1757-0.21704 0-0.42891-0.20154-0.21187-0.2067-0.44958-0.59428zm-0.09302-2.0412q-0.31006 0.11369-0.90434 0.24288-0.58911 0.12402-0.81648 0.18604-0.22738 0.05684-0.43408 0.23254-0.2067 0.17053-0.2067 0.48059 0 0.32039 0.24288 0.54777 0.24288 0.22221 0.63562 0.22221 0.41858 0 0.76998-0.18087 0.35657-0.18604 0.52193-0.47542 0.1912-0.32039 0.1912-1.0542zm3.9791 3.0127 0.12919-0.31522-1.7363-4.3718q-0.1602-0.37724-0.1602-0.54777 0-0.18087 0.09302-0.3359 0.09302-0.15503 0.25321-0.24805 0.16536-0.09302 0.34106-0.09302 0.30489 0 0.45992 0.19637 0.15503 0.1912 0.27388 0.55294l1.1937 3.4726 1.1317-3.2298q0.13436-0.39274 0.24288-0.61495t0.22738-0.29972q0.12402-0.07751 0.34623-0.07751 0.1602 0 0.30489 0.08785 0.14986 0.08268 0.22738 0.22738 0.08268 0.14469 0.08268 0.30489-0.02067 0.09819-0.06718 0.27905-0.04651 0.18087-0.11369 0.3669l-1.8397 4.8162q-0.23771 0.63562-0.46509 0.99735t-0.60461 0.55294q-0.37207 0.19637-1.0077 0.19637-0.62012 0-0.93017-0.13436-0.31006-0.13436-0.31006-0.49092 0-0.24288 0.14469-0.37724 0.14986-0.12919 0.43925-0.12919 0.11369 0 0.22221 0.03101 0.13436 0.03101 0.23254 0.03101 0.24288 0 0.3824-0.07235t0.24805-0.25321q0.11369-0.1757 0.25838-0.52193z" aria-label="NovoBay"/>
 </g>
</svg>
