<?xml version="1.0" encoding="utf-8"?>
<!-- Generator: Adobe Illustrator 27.9.0, SVG Export Plug-In . SVG Version: 6.00 Build 0)  -->
<svg version="1.1" id="Layer_1" xmlns="http://www.w3.org/2000/svg" xmlns:xlink="http://www.w3.org/1999/xlink" x="0px" y="0px"
	 viewBox="0 0 1000 1000" style="enable-background:new 0 0 1000 1000;" xml:space="preserve">
<style type="text/css">
	.st0{fill-rule:evenodd;clip-rule:evenodd;fill:#24B592;}
	.st1{fill:#24B592;}
	.st2{display:none;fill:#FFFFFF;}
</style>
<path class="st0" d="M648.7,556.7c-27.5-15.3-61.3-29-101.5-36.2c-75.4-149.3-163.6-268.4-292.1-383.9V1000H126.6V0h167.1
	C401,89.7,484.3,180.3,553.7,280c11.5,97.8,41.4,177,71.3,234.8C633,530.3,641,544.3,648.7,556.7z"/>
<path class="st0" d="M717.5,949.4C678.1,833,641.4,731.8,603,641.5c11.3,3.9,22.2,7,32.4,9.5c25,6,46.5,8,61.8,8.4
	c7,0.2,12.7,0.1,16.9,0c0.1,0.4,0.1,0.9,0.2,1.3C727.2,770.3,727.6,846.9,717.5,949.4z"/>
<path class="st1" d="M720.4,639.6c0,0-133.4,15.1-243.9-104.8C636.7,529.4,720.4,639.6,720.4,639.6z"/>
<path class="st1" d="M715.3,614.9c0,0-145.8-151.7-147.2-416.1C741.8,414.3,715.3,614.9,715.3,614.9z"/>
<path class="st2" d="M807.7,124.4c-12.1,86.1-11.9,144,0.2,230.5l0.1,1v1c0,1.8-0.3,3.5-0.7,5l0.7,0c0,1.1-0.1,2.2-0.3,3.3
	c-12.1,93-11.9,155.5,0.2,248.8l0.1,1v1c0,2.2-0.3,4.1-0.9,5.9l0.9,0.1c0,1.1-0.1,2.2-0.3,3.3c-12.1,93-11.9,155.5,0.2,248.8l0.1,1
	v1c0,10.8-8.7,16.3-12,18.1c-4.5,2.5-10,4.3-15.5,5.6c-11.3,2.7-26.1,4.2-42,4.2s-30.7-1.5-42-4.2c-5.5-1.3-11-3.1-15.5-5.6
	c-3.3-1.8-12-7.3-12-18.1v-0.9l0.1-0.8c1-8.5,1.8-16.8,2.6-24.8c7.9-79.7,7.5-139.3-2.5-224.6c0-0.3-0.1-0.7-0.1-1
	c-3.3,0.1-7.7,0.2-13.1,0c-11.9-0.4-28.6-1.9-48.1-6.6c-8-1.9-16.4-4.3-25.2-7.4c-34.2-11.9-73.4-33.6-109.5-72.8l-22.2-24l32.7-1.1
	c19.9-0.7,38.4,0.8,55.5,3.8c31.2,5.5,57.6,16.2,79,28.1c-5.9-9.7-12.2-20.5-18.4-32.6c-23.2-45-46.5-106.6-55.5-182.7
	c-2.4-20-3.7-41.1-3.8-63.1l-0.2-42.9l26.9,33.4c67.7,83.9,97.4,165.2,110.1,226.8c-0.2-36.7-2.8-73.9-8-118c-0.2-1-0.2-2-0.2-3
	l0.7,0c-0.4-1.5-0.7-3.2-0.7-5v-0.9l0.1-0.9c10.5-86,11.1-144.1,0.2-231.1c-0.2-1-0.3-2-0.3-3.1l0.7,0c-0.4-1.5-0.7-3.2-0.7-5
	c0-5.8,2.7-10,5.1-12.6c2.3-2.5,5-4.2,7.2-5.3c4.4-2.3,9.9-4,15.4-5.2c11.2-2.5,26-3.9,41.8-3.9s30.6,1.4,41.8,3.9
	c5.5,1.2,10.9,2.8,15.4,5.2c2.2,1.1,4.9,2.8,7.2,5.3c2.4,2.6,5.1,6.9,5.1,12.6c0,1.8-0.3,3.5-0.7,5l0.7,0
	C808,122.2,807.9,123.3,807.7,124.4z"/>
<ellipse class="st1" cx="803.3" cy="15.4" rx="70.1" ry="15.4"/>
<path class="st1" d="M873.4,34.7c0,0.3,0,0.6-0.1,1c-15.9,112.4-15.7,175.6,0.1,288.3c0,8.5-31.4,15.4-70.1,15.4
	s-70.1-6.9-70.1-15.4c13.7-111.7,14.5-175,0.1-288.4c-0.1-0.3-0.1-0.6-0.1-0.9c0,0.3,0.1,0.6,0.1,0.9c2.1,8.1,32.6,14.5,69.9,14.5
	c37.2,0,67.6-6.4,69.9-14.4C873.3,35.4,873.3,35,873.4,34.7z"/>
<path class="st1" d="M873.4,341.9c0,0.3,0,0.7-0.1,1c-15.9,120.1-15.7,188.6,0.1,309c0,9.1-31.4,16.4-70.1,16.4s-70.1-7.3-70.1-16.4
	c13.7-119.4,14.5-187.9,0.1-309.1c-0.1-0.3-0.1-0.6-0.1-0.9c0,0.3,0.1,0.6,0.1,0.9c2.1,8.6,32.6,15.5,69.9,15.5
	c37.2,0,67.6-6.8,69.9-15.4C873.3,342.6,873.3,342.2,873.4,341.9z"/>
<path class="st1" d="M873.4,671c0,0.4,0,0.7-0.1,1c-15.9,121.1-15.7,190.1,0.1,311.5c0,9.1-31.4,16.5-70.1,16.5s-70.1-7.4-70.1-16.5
	c13.7-120.3,14.5-189.4,0.1-311.6c-0.1-0.3-0.1-0.6-0.1-0.9c0,0.3,0.1,0.6,0.1,0.9c2.1,8.7,32.6,15.6,69.9,15.6
	c37.2,0,67.6-6.8,69.9-15.5C873.3,671.6,873.3,671.3,873.4,671z"/>
</svg>
