<?xml version="1.0" encoding="UTF-8"?>
<!-- Generator: Adobe Illustrator 26.0.1, SVG Export Plug-In . SVG Version: 6.00 Build 0)  -->
<svg width="1632" height="635.18" version="1.1" viewBox="0 0 1632 635.18" xml:space="preserve" xmlns="http://www.w3.org/2000/svg">
<style type="text/css">
	.st0{fill:#111111;}
	.st1{fill:#22E0FF;}
	.st2{fill:#24B592;}
</style>
<rect id="Sunny_Spells_Regular" class="st0" x="-868.77" y="-753.27" width="3341" height="2224" display="none"/>
<g transform="translate(-868.77,-753.27)">
	<g>
		
			
				<path class="st1" d="m868.77 762.29h50.74c53.5 35.52 108.39 104.24 142.99 175.27v-175.27h50.74v322.87h-50.74v-11.53c-9.69-74.72-79.79-194.64-142.99-253.22v264.75h-50.74z"/>
				<path class="st1" d="m1165.4 969.85c0-79.33 36.9-122.23 103.32-122.23 65.04 0 101.93 43.36 101.93 122.23 0 79.33-37.36 122.23-103.78 122.23-65.03 0-101.47-43.36-101.47-122.23zm156.82 0c0-52.58-17.99-77.49-54.43-77.49-35.98 0-53.97 24.91-53.97 77.49 0 51.66 17.99 77.03 53.97 77.03 36.44 0 54.43-25.37 54.43-77.03z"/>
				<path class="st1" d="m1490.1 1085.2c-58.58-49.35-83.48-127.3-84.87-230.62h48.43c1.84 63.65 11.53 139.76 56.27 188.19 45.2-48.43 54.89-124.54 56.73-188.19h48.43c-1.38 103.32-26.75 181.27-85.33 230.62z"/>
				<path class="st1" d="m1648.3 969.85c0-79.33 36.9-122.23 103.32-122.23 65.04 0 101.93 43.36 101.93 122.23 0 79.33-37.36 122.23-103.78 122.23-65.03 0-101.47-43.36-101.47-122.23zm156.82 0c0-52.58-17.99-77.49-54.43-77.49-35.98 0-53.96 24.91-53.96 77.49 0 51.66 17.99 77.03 53.96 77.03 36.44 0 54.43-25.37 54.43-77.03z"/>
			
			
				<path class="st2" d="m1920.8 786.21c0-3.77-0.77-7.03-2.32-9.78-1.54-2.74-3.18-5.06-4.89-6.95-1.72-1.88-3.34-3.6-4.89-5.15-1.54-1.54-2.32-3.17-2.32-4.89 0-1.71 0.51-3.17 1.54-4.37s2.23-1.8 3.6-1.8h118.86c28.47 0 50.08 6.61 64.83 19.81 14.75 13.21 22.13 33.53 22.13 60.97 0 14.07-1.98 25.73-5.92 34.99-3.95 9.26-8.41 16.81-13.38 22.64-4.98 5.84-9.61 10.38-13.89 13.64-4.29 3.26-6.78 5.92-7.46 7.98 6.51 1.72 12.78 5.15 18.78 10.29 6 5.15 11.14 11.32 15.44 18.52 4.29 7.2 7.8 15.36 10.55 24.44 2.74 9.09 4.12 18.44 4.12 28.04 0 13.72-1.98 26.24-5.92 37.56-3.95 11.32-9.61 20.84-16.98 28.56-7.38 7.72-16.64 13.72-27.79 18.01s-23.93 6.43-38.33 6.43h-16.21-21.87-24.7-24.7-21.61-15.95c-1.38 0-2.57-0.59-3.6-1.8-1.03-1.2-1.54-2.65-1.54-4.37 0-1.71 0.77-3.42 2.32-5.15 1.54-1.71 3.17-3.51 4.89-5.4 1.71-1.88 3.34-4.12 4.89-6.69s2.32-5.57 2.32-9zm58.4 266.53c0.85 1.03 2.65 1.8 5.4 2.32 2.74 0.51 6.43 0.69 11.06 0.51 4.63-0.17 11.06-0.26 19.29-0.26 8.92-0.34 16.63-1.8 23.16-4.37 6.51-2.57 12-6.51 16.47-11.83 4.45-5.31 7.8-12 10.03-20.07 2.23-8.06 3.34-17.75 3.34-29.07 0-10.97-1.12-20.49-3.34-28.56-2.24-8.06-5.66-14.67-10.29-19.81-4.63-5.15-10.47-8.83-17.49-11.06-7.04-2.23-15.53-3.34-25.47-3.34h-33.45l-0.51 120.41c0.34 2.39 0.94 4.11 1.8 5.13zm-1.28-269.62v120.41h8.75 7.98 7.98 8.75c7.54 0 14.49-1.11 20.84-3.34 6.34-2.23 11.83-5.83 16.47-10.81 4.63-4.97 8.23-11.14 10.8-18.52 2.57-7.37 3.86-16.38 3.86-27.01-0.35-19.89-4.46-35.07-12.35-45.54-7.9-10.46-19.9-15.69-36.02-15.69z"/>
				<path class="st2" d="m2261.4 988.94c0.68-5.15 0.68-10.37 0-15.69-0.69-5.31-2.06-10.03-4.12-14.15s-5.07-7.46-9-10.03c-3.95-2.57-8.84-3.86-14.67-3.86-5.15 0-10.72 1.21-16.72 3.6-6.01 2.4-11.58 5.92-16.72 10.55-5.15 4.63-9.35 10.55-12.61 17.75s-4.89 15.78-4.89 25.73c0 13.38 2.48 24.02 7.46 31.9 4.97 7.9 11.75 11.67 20.33 11.32 7.2-0.34 14.06-3 20.58-7.98 6.51-4.97 12.26-11.23 17.24-18.78 4.97-7.54 9.34-16.03 13.12-25.47 3.77-9.43 6.69-18.6 8.75-27.53l-6.69 31.39c-1.72 11.67-4.63 22.99-8.75 33.96-4.12 10.98-9.18 20.76-15.18 29.33-6.01 8.58-12.95 15.44-20.84 20.58-7.89 5.15-16.47 7.72-25.73 7.72-7.55 0-14.5-1.8-20.84-5.4-6.35-3.6-11.75-8.66-16.21-15.18-4.46-6.51-7.98-14.23-10.55-23.15s-3.86-18.69-3.86-29.33c0-15.09 2.57-28.38 7.72-39.88 5.15-11.49 11.66-21.01 19.55-28.56 7.89-7.54 16.55-13.2 25.98-16.98 9.43-3.77 18.6-5.66 27.53-5.66 5.48 0 11.06 0.6 16.72 1.8 5.66 1.21 10.97 3.26 15.95 6.17 4.97 2.92 9.17 6.87 12.61 11.83 3.42 4.98 5.31 11.06 5.66 18.27zm75.38 57.89c0.17 1.21-0.09 2.66-0.77 4.37-2.06 4.46-4.37 8.92-6.95 13.38-2.57 4.46-5.49 8.58-8.75 12.35-3.26 3.78-6.95 6.78-11.06 9s-8.75 3.34-13.89 3.34c-5.84 0-10.98-1.21-15.44-3.6-4.46-2.4-8.32-6.09-11.58-11.06s-5.84-10.97-7.72-18.01c-1.89-7.03-3.18-15.35-3.86-24.96-0.35-7.89 0.43-17.41 2.32-28.56 1.88-11.14 3.94-22.46 6.17-33.96 2.23-11.49 4.2-22.72 5.92-33.7 1.71-10.97 2.4-20.24 2.06-27.79-0.69-7.54-2.32-13.38-4.89-17.49-2.57-4.12-5.75-7.2-9.52-9.26-3.78-2.06-8.06-3.26-12.86-3.6-4.81-0.34-9.61-0.17-14.41 0.51-16.13 1.72-28.65 4.55-37.56 8.49-8.92 3.95-15.78 7.98-20.58 12.09-4.81 4.12-8.41 7.81-10.81 11.06-2.4 3.26-5.32 4.89-8.75 4.89-2.06 0-3.78-0.77-5.15-2.32-1.37-1.54-2.57-3.68-3.6-6.43-1.03-2.74-1.72-5.92-2.06-9.52-0.35-3.6-0.51-7.28-0.51-11.06 0-5.15 2.32-9.95 6.95-14.41 4.63-4.45 10.72-8.23 18.27-11.32 7.54-3.09 15.95-5.66 25.21-7.72s18.6-3.42 28.04-4.12c9.43-0.68 18.35-0.6 26.76 0.26 8.4 0.86 15.35 2.49 20.84 4.89 10.63 4.46 18.44 11.24 23.41 20.32 4.97 9.09 8.23 20.07 9.78 32.93s2.14 27.62 1.8 44.25c-0.35 16.64-0.51 34.56-0.51 53.77v22.9c0 7.04 0.34 13.3 1.03 18.78 0.68 5.49 1.71 9.95 3.09 13.38 1.37 3.43 3.42 5.49 6.17 6.17 2.06 0.69 3.94 0.35 5.66-1.03 1.71-1.37 3.26-3.17 4.63-5.4s2.57-4.71 3.6-7.46c1.03-2.74 1.88-4.97 2.57-6.69 1.37-1.03 2.48-1.62 3.34-1.8 0.85-0.17 1.62 0.09 2.32 0.77 0.69 1.05 1.11 2.17 1.29 3.37z"/>
				<path class="st2" d="m2404.7 1140.2c12.86-8.92 23.75-22.99 32.67-42.19 3.42-5.84 6.25-11.41 8.49-16.72 2.23-5.31 4.12-10.89 5.66-16.72s2.91-11.92 4.12-18.27c1.2-6.34 2.48-12.78 3.86-19.3-3.09 5.84-6.87 11.75-11.32 17.75-4.46 6.01-9.09 11.41-13.89 16.21-4.81 4.81-9.86 8.67-15.18 11.58-5.32 2.92-10.55 4.37-15.69 4.37-5.49 0-10.64-1.46-15.44-4.37-4.81-2.91-9.26-7.37-13.38-13.38-4.12-6-7.81-13.55-11.06-22.64-3.26-9.08-6.26-19.81-9-32.16l-28.81-121.95c-2.06-8.92-4.46-15-7.2-18.27-2.75-3.26-4.12-6.6-4.12-10.03 0-1.71 0.43-3.09 1.29-4.12 0.85-1.03 2.83-1.54 5.92-1.54l44.77-0.51c3.42 0 5.83 0.51 7.2 1.54s1.88 2.92 1.54 5.66c-0.35 2.06-0.77 4.2-1.29 6.43-0.51 2.24-1.12 4.63-1.8 7.2-0.69 2.57-1.12 5.23-1.29 7.98-0.18 2.75 0.08 5.66 0.77 8.75l25.21 124.01c0.68 4.81 1.62 9.61 2.83 14.41 1.2 4.81 2.57 9.09 4.12 12.86 1.54 3.78 3.34 6.87 5.4 9.26 2.06 2.4 4.45 3.6 7.2 3.6 3.42 0 6.95-2.14 10.55-6.43s6.95-9.52 10.03-15.69c3.09-6.17 5.83-12.78 8.23-19.81s4.29-13.64 5.66-19.81c2.4-9.26 3.86-20.84 4.37-34.73s0.17-27.53-1.03-40.91c-1.21-13.38-3.34-25.21-6.43-35.5s-7.2-16.29-12.35-18.01c-1.72-0.68-2.92-1.62-3.6-2.83-0.69-1.2-1.03-2.48-1.03-3.86 0-1.37 0.59-2.57 1.8-3.6 1.2-1.03 2.48-1.54 3.86-1.54 6.17 0.35 12.69 0.86 19.55 1.54 6.86 0.69 13.29 1.98 19.3 3.86 6 1.89 11.14 4.63 15.44 8.23 4.29 3.6 7.12 8.84 8.49 15.69 1.37 18.87 1.88 39.8 1.54 62.78-0.35 22.99-1.98 46.23-4.89 69.72-2.92 23.5-7.46 46.31-13.64 68.44s-14.41 41.42-24.7 57.89c-6.17 10.29-13.04 19.12-20.58 26.5-7.55 7.37-15.61 13.64-24.18 18.78-8.58 5.15-17.41 9-26.5 11.58-9.09 2.57-18.27 3.86-27.53 3.86-8.58 0.34-16.21-0.35-22.9-2.06-6.69-1.72-12.27-4.29-16.72-7.72-4.46-3.43-7.89-7.55-10.29-12.35-2.4-4.81-3.6-10.47-3.6-16.98 0-3.78 0.09-7.46 0.26-11.06 0.18-3.6 0.69-6.87 1.54-9.78 0.86-2.92 2.06-5.23 3.6-6.95s3.51-2.57 5.92-2.57c3.09 0.34 5.23 1.71 6.43 4.12 1.2 2.4 3 5.15 5.4 8.23 2.4 3.09 5.83 6 10.29 8.75 4.45 2.74 11.66 4.29 21.61 4.63 16.82 1.01 31.66-2.93 44.52-11.85z"/>
			
		
		
			
				<path class="st1" d="m1451.1 1231.7c0-29.06 10.64-53.85 31.93-74.37 21.28-20.52 47.09-30.78 77.43-30.78 11.72 0 23.13 1.15 34.22 3.44s22.62 6.12 34.61 11.47c11.98 5.35 22.05 10.2 30.21 14.53 8.16 4.34 18.99 10.46 32.5 18.35 4.33-0.25 7.65-1.46 9.94-3.63 2.29-2.16 4.21-5.67 5.74-10.52l0.76-1.91 6.12 1.53-13.77 44.36-3.82-1.91c-5.1-4.59-12.04-9.3-20.84-14.15-8.79-4.84-15.36-7.26-19.69-7.26-12.75 0-23.77 5.16-33.08 15.49-9.31 10.32-16.19 23.9-20.65 40.72-4.46 16.83-6.69 35.82-6.69 56.97v11.09c9.68-7.13 17.21-15.74 22.56-25.81s8.03-20.84 8.03-32.31h7.65c0 13.51-3.32 26.26-9.94 38.24-6.63 11.99-15.68 22.05-27.15 30.21 2.29 17.59 7.27 31.23 14.91 40.91 7.65 9.69 17.33 14.53 29.06 14.53 18.1 0 36.45-9.3 55.06-27.91l4.97 4.59c-5.87 5.87-10.52 10.32-13.96 13.38s-8.1 6.76-13.96 11.09c-5.87 4.34-11.73 7.46-17.59 9.37-5.87 1.91-11.99 2.87-18.35 2.87-15.04 0-28.17-5.29-39.38-15.87-11.22-10.58-19.38-24.41-24.47-41.49-9.43 3.06-19.12 4.59-29.06 4.59-27.02 0-49.33-9.43-66.92-28.3-17.58-18.86-26.38-42.7-26.38-71.51zm9.56 0c0 26.26 7.9 47.8 23.71 64.62 15.8 16.82 35.94 25.24 60.42 25.24 8.92 0 17.71-1.4 26.38-4.21-1.79-9.18-2.68-18.6-2.68-28.3 0-34.66 8.99-63.28 26.96-85.84s39.83-33.84 65.58-33.84c2.04 0 4.59 0.26 7.65 0.76-19.38-10.19-37.66-17.97-54.87-23.32s-35.12-8.03-53.72-8.03c-27.53 0-50.99 9.05-70.36 27.15-19.38 18.11-29.07 40.03-29.07 65.77z"/>
				<path class="st1" d="m1716.9 1191.2v-6.12h23.33c4.84 0 9.11-0.7 12.81-2.1 3.69-1.4 6.24-2.74 7.65-4.01 1.4-1.27 3.25-3.31 5.54-6.12l1.53-1.15 3.82 1.91-0.38 1.53c-6.88 30.85-14.21 67.36-21.99 109.55s-11.66 67.49-11.66 75.9c0 4.59 0.32 7.65 0.96 9.18 0.63 1.53 1.85 2.29 3.63 2.29 6.88 0 19.75-6.88 38.62-20.65l3.82 4.97c-13 9.94-23.01 17.02-30.02 21.22-7.01 4.21-12.81 6.31-17.4 6.31-5.61 0-10.39-1.79-14.34-5.35-3.96-3.57-5.93-8.66-5.93-15.29 0-7.39 1.15-17.46 3.44-30.21l16.44-141.1z"/>
				<path class="st1" d="m1788.4 1294v-6.12h27.91c8.16-0.25 16.19-5.6 24.09-16.06l1.15-1.53 4.21 2.29-19.12 60.8c-2.29 13.51-3.44 22.56-3.44 27.15 0 3.82 0.51 6.25 1.53 7.26 1.02 1.02 3.31 1.53 6.88 1.53 9.18 0 21.79-5.74 37.85-17.21l3.82 4.59c-24.99 18.1-42.58 27.15-52.77 27.15-4.85 0-9.12-1.6-12.81-4.78-3.7-3.18-5.54-8.47-5.54-15.87 0-7.39 1.15-17.46 3.44-30.21l3.06-36.71zm32.12-48.18 1.53-11.85c1.27-9.94 6.12-14.91 14.53-14.91h19.5l-2.68 16.06c-0.51 3.06-2.04 5.61-4.59 7.65s-5.48 3.06-8.79 3.06h-19.5z"/>
				<path class="st1" d="m1874.4 1293.2v-6.5h21.41c5.86 0 10.83-3.95 14.91-11.85l0.76-1.91 4.21 1.91-1.15 44.74c1.02-2.55 2.54-5.54 4.59-8.99 2.04-3.44 5.1-8.03 9.18-13.77 4.07-5.74 9.18-10.51 15.29-14.34s12.49-5.74 19.12-5.74c9.18 0 16.63 2.68 22.37 8.03s8.6 12.24 8.6 20.65c0 5.61-2.17 15.04-6.5 28.3-5.87 17.59-8.79 29.06-8.79 34.41 0 2.55 1.02 3.82 3.06 3.82 6.88 0 19.5-6.62 37.85-19.88l3.44 4.97c-22.18 17.85-37.6 26.77-46.27 26.77-10.96 0-16.44-6.88-16.44-20.65 0-6.88 1.27-16.95 3.82-30.21l3.82-19.12c0.51-2.8 0.76-5.6 0.76-8.41 0-4.84-0.64-8.79-1.91-11.85-1.28-3.06-3.06-4.59-5.35-4.59-5.61 0-10.96 1.72-16.06 5.16s-9.37 7.78-12.81 13c-3.44 5.23-5.99 9.37-7.65 12.43s-3 5.61-4.01 7.65c-5.1 13-8.54 24.22-10.32 33.65-1.28 10.96-2.04 17.34-2.29 19.12v2.29l-26.38 1.91 1.15-3.44c2.29-5.6 5.74-21.54 10.32-47.8v-39z"/>
				<path class="st1" d="m2024.7 1294v-6.12h27.91c8.16-0.25 16.19-5.6 24.09-16.06l1.15-1.53 4.21 2.29-19.12 60.8c-2.29 13.51-3.44 22.56-3.44 27.15 0 3.82 0.51 6.25 1.53 7.26 1.02 1.02 3.31 1.53 6.88 1.53 9.18 0 21.79-5.74 37.85-17.21l3.82 4.59c-24.99 18.1-42.58 27.15-52.77 27.15-4.85 0-9.12-1.6-12.81-4.78-3.7-3.18-5.54-8.47-5.54-15.87 0-7.39 1.15-17.46 3.44-30.21l3.06-36.71zm32.12-48.18 1.53-11.85c1.27-9.94 6.12-14.91 14.53-14.91h19.5l-2.68 16.06c-0.51 3.06-2.04 5.61-4.59 7.65s-5.48 3.06-8.79 3.06h-19.5z"/>
				<path class="st1" d="m2115.7 1335.7c0-15.8 5.54-29.25 16.63-40.34s24.41-16.63 39.96-16.63c2.8 0 6.63 0.77 11.47 2.29 3.82 1.28 6.75 1.91 8.79 1.91 4.59 0 7.9-1.02 9.94-3.06s3.82-5.22 5.35-9.56l6.12 1.53-13.38 35.94-3.44-1.53c-12.75-10.45-22.43-15.68-29.06-15.68-7.14 0-13.32 4.15-18.55 12.43-5.23 8.29-7.84 18.68-7.84 31.16 0 11.47 4.14 21.35 12.43 29.63 8.28 8.29 18.16 12.43 29.63 12.43 21.92 0 40.59-6.94 56.02-20.84 15.42-13.89 23.13-30.52 23.13-49.9 0-14.27-6.38-24.98-19.12-32.12l5.74-6.5c14.53 8.67 21.8 21.54 21.8 38.62 0 22.94-8.54 42.51-25.62 58.7-17.08 16.18-37.73 24.28-61.95 24.28-18.61 0-34.6-5.1-47.99-15.29-13.36-10.19-20.06-22.68-20.06-37.47z"/>
			
		
	
	
		
			
				<path class="st2" d="m1219.6 1131.9c-1.32 4.4-2.92 8.97-3.13 13.35-0.62 13.05 2.43 24.92 6.78 36.13 10.41 26.81 23.61 51.59 43.72 71.11 8.43 8.18 15.02 18.49 26.47 23.21 0.63 0.26 0.96 1.1 1.44 1.65 4.01 4.55 8.04 9.08 12.04 13.63 0.12 0.14 0.25 0.29 0.37 0.43 1.12-0.66 2.29-1.22 3.49-1.67-8.27-4.91-14.08-12.14-15.18-24.15-2.57-27.87-13.6-51.54-27.31-73.48-3.95-6.33-8.92-12.21-14.62-16.83-14.42-11.7-27.58-24.29-34.07-43.38z"/>
			
		
		
			
				<path class="st2" d="m1005.7 1136.2c-1.2 4.84-2.66 9.92-2.73 14.54-0.22 13.77 3.21 25.62 7.93 36.56 11.29 26.15 25.32 49.67 46.15 66.42 8.73 7.02 15.67 16.61 27.32 19.46 0.64 0.16 0.99 0.98 1.5 1.46 4.17 4.02 8.36 8.04 12.53 12.07l0.38 0.38c1.11-0.9 2.27-1.69 3.46-2.39-8.47-3.63-14.53-10.13-16.01-22.5-3.44-28.69-15.26-51.44-29.71-71.89-4.17-5.9-9.34-11.15-15.22-14.94-14.88-9.6-28.49-20.38-35.6-39.17z"/>
			
		
		
			
				<path class="st2" d="m1256.1 1388.3c-0.03-3.73-0.22-7.68 0.53-11.06 2.23-10.06 6.78-18.09 12.11-25.23 12.75-17.07 27.04-31.76 45.1-40.34 7.57-3.59 14.28-9.37 23.26-9.43 0.5 0 0.89-0.54 1.35-0.81 3.74-2.2 7.48-4.4 11.21-6.61 0.12-0.07 0.23-0.14 0.35-0.21 0.65 0.85 1.36 1.62 2.11 2.34-6.79 1.17-12.33 4.85-15.55 13.6-7.47 20.28-20.02 34.79-34.09 47.17-4.06 3.57-8.73 6.49-13.67 8.24-12.5 4.41-24.28 9.89-32.71 22.34z"/>
			
		
		
			
				<path class="st2" d="m993.34 1374.8c4 0.72 8.21 1.65 11.98 1.47 11.22-0.54 20.69-3.94 29.35-8.36 20.7-10.55 39.12-23.2 51.67-41.02 5.26-7.47 12.7-13.62 14.42-23.26 0.09-0.53 0.74-0.86 1.11-1.3 3.06-3.61 6.11-7.22 9.17-10.82 0.1-0.11 0.19-0.22 0.29-0.33-0.79-0.86-1.5-1.76-2.12-2.69-2.51 7.08-7.49 12.35-17.48 14.2-23.17 4.29-41.08 15.1-56.98 27.93-4.59 3.7-8.59 8.18-11.37 13.17-7.05 12.59-15.11 24.24-30.04 31.01z"/>
			
		
		
			
				<path class="st2" d="m939.91 1196.8c-3-2.59-5.03-6.69-5.64-13.03-2.23-23.11-10.77-40.07-21.3-54.74-3.04-4.23-6.83-7.77-11.16-10.01-10.96-5.67-20.97-12.49-26.05-26.9-0.95 4.17-2.09 8.57-2.2 12.39-0.32 11.37 2.09 20.62 5.48 28.92 8.11 19.83 18.28 37.09 33.6 47.75 6.42 4.46 11.47 11.32 20.12 11.91 0.48 0.03 0.73 0.65 1.1 0.98 1.81 1.59 3.61 3.17 5.42 4.75 0.16-0.69 0.37-1.37 0.63-2.02z"/>
			
		
		<path class="st1" d="m1421.4 1285.4c-142.94 31.59-366.48 44.98-472.25-74.79-15.64-17.72-28.07-38.08-37.31-59.77 9.99 21.24 23.07 41.02 39.23 58.02 82.35 85.45 216.57 91.49 327.86 81.08 46.21-4.74 92.24-12.62 137.1-24.65 5.54-1.61 11.36 1.6 12.93 7.16 1.61 5.66-1.84 11.57-7.56 12.95z"/>
	</g>
</g>
</svg>
